<?xml version="1.0" standalone="no"?>
<!DOCTYPE svg PUBLIC "-//W3C//DTD SVG 20010904//EN"
 "http://www.w3.org/TR/2001/REC-SVG-20010904/DTD/svg10.dtd">
<svg version="1.0" xmlns="http://www.w3.org/2000/svg"
 width="1866.000000pt" height="1879.000000pt" viewBox="0 0 1866.000000 1879.000000"
 preserveAspectRatio="xMidYMid meet">

<g transform="translate(0.000000,1879.000000) scale(0.100000,-0.100000)"
fill="#000000" stroke="none">
<path d="M0 9395 l0 -9395 9330 0 9330 0 0 9395 0 9395 -9330 0 -9330 0 0
-9395z m17410 0 l0 -8145 -8080 0 -8080 0 0 8145 0 8145 8080 0 8080 0 0
-8145z"/>
<path d="M1690 17068 c-1 -60 582 -12713 585 -12725 4 -10 194 -13 909 -13
524 0 907 4 910 9 9 13 190 3255 345 6156 16 292 29 516 30 499 10 -265 93
-1886 136 -2679 74 -1336 218 -3590 250 -3922 l7 -63 919 0 c505 0 919 1 920
3 4 14 586 12754 582 12760 -2 4 -315 7 -694 7 -543 0 -691 -3 -694 -12 -9
-25 -108 -1977 -160 -3148 -78 -1778 -163 -4194 -191 -5475 -4 -170 -10 -320
-13 -333 -4 -12 -39 1083 -79 2435 -92 3081 -198 6384 -208 6481 l-5 52 -765
0 c-603 0 -765 -3 -769 -12 -4 -14 -8 -87 -55 -1018 -112 -2212 -201 -4278
-255 -5920 -22 -658 -45 -1461 -47 -1620 l-1 -135 -9 110 c-4 61 -67 2014
-139 4340 -71 2327 -132 4236 -134 4243 -3 9 -150 12 -690 12 l-685 0 0 -32z"/>
<path d="M7896 17058 c-5 -43 -667 -12649 -666 -12700 l0 -28 730 0 c576 0
731 3 735 12 2 7 18 456 37 998 l33 985 253 3 c138 1 252 1 252 0 3 -76 60
-1927 60 -1955 l0 -43 726 0 726 0 -6 77 c-4 43 -173 2911 -376 6373 -204
3462 -372 6301 -375 6308 -3 9 -225 12 -1064 12 l-1060 0 -5 -42z m1143 -3193
c61 -1829 127 -3603 176 -4675 8 -179 15 -342 15 -362 l0 -38 -240 0 -240 0 0
63 c0 165 55 1483 105 2547 50 1032 157 3101 162 3097 1 -1 11 -286 22 -632z"/>
<path d="M11050 10715 l0 -6385 1456 2 1456 3 44 80 c165 301 267 765 304
1380 32 528 33 707 37 4360 5 4091 -1 4822 -47 5360 -53 615 -209 1202 -406
1526 l-35 59 -1405 0 -1404 0 0 -6385z m1597 4580 c147 -44 220 -185 255 -497
16 -147 24 -7014 8 -7502 -12 -375 -31 -632 -55 -747 -41 -198 -151 -311 -316
-326 l-59 -6 0 4553 0 4553 60 -7 c33 -4 81 -13 107 -21z"/>
<path d="M15190 2560 l0 -920 918 2 917 3 3 918 2 917 -920 0 -920 0 0 -920z"/>
</g>
</svg>
