<?xml version="1.0" encoding="UTF-8"?>
<!-- Generator: visioncortex VTracer 0.6.3 -->
<svg version="1.1" xmlns="http://www.w3.org/2000/svg" width="1271" height="1280">
<path d="M0 0 C419.43 0 838.86 0 1271 0 C1271 422.4 1271 844.8 1271 1280 C851.57 1280 432.14 1280 0 1280 C0 857.6 0 435.2 0 0 Z " fill="#EDF2F7" transform="translate(0,0)"/>
<path d="M0 0 C419.43 0 838.86 0 1271 0 C1271 422.4 1271 844.8 1271 1280 C851.57 1280 432.14 1280 0 1280 C0 857.6 0 435.2 0 0 Z M85.06 85.06 C83.41 88.08 83.59 91.11 83.63 94.46 C83.62 95.24 83.62 96.01 83.62 96.8 C83.61 99.42 83.62 102.03 83.63 104.64 C83.63 106.53 83.63 108.42 83.62 110.31 C83.61 115.54 83.62 120.78 83.63 126.01 C83.64 131.69 83.64 137.36 83.63 143.04 C83.63 153.01 83.63 162.97 83.64 172.93 C83.66 183.63 83.66 194.32 83.66 205.02 C83.66 205.69 83.66 206.37 83.66 207.06 C83.66 210.5 83.66 213.94 83.66 217.38 C83.65 242.3 83.66 267.22 83.68 292.14 C83.7 316.83 83.71 341.51 83.72 366.2 C83.72 366.96 83.72 367.73 83.72 368.52 C83.72 375.52 83.72 382.51 83.72 389.51 C83.72 406.91 83.72 424.3 83.73 441.7 C83.73 442.49 83.73 443.28 83.73 444.1 C83.73 482.65 83.75 521.21 83.77 559.76 C83.78 573.14 83.79 586.52 83.79 599.91 C83.79 600.74 83.79 601.57 83.8 602.42 C83.81 640.99 83.83 679.56 83.83 718.13 C83.84 720.63 83.84 723.13 83.84 725.64 C83.84 742.23 83.84 758.82 83.85 775.41 C83.86 808.42 83.86 841.43 83.87 874.44 C83.87 876.01 83.87 877.58 83.87 879.16 C83.89 949.94 83.92 1020.73 83.95 1091.52 C83.95 1092.18 83.95 1092.85 83.95 1093.53 C83.97 1126.69 83.98 1159.84 84 1193 C86.98 1194.49 90.03 1194.14 93.3 1194.12 C94.06 1194.13 94.83 1194.13 95.62 1194.13 C98.21 1194.13 100.81 1194.13 103.41 1194.12 C105.29 1194.12 107.16 1194.12 109.04 1194.13 C114.24 1194.13 119.44 1194.13 124.64 1194.12 C130.28 1194.12 135.93 1194.12 141.57 1194.12 C151.47 1194.12 161.37 1194.12 171.27 1194.12 C181.9 1194.11 192.53 1194.11 203.16 1194.11 C203.83 1194.11 204.5 1194.11 205.19 1194.11 C208.61 1194.11 212.03 1194.11 215.45 1194.11 C240.21 1194.12 264.98 1194.11 289.74 1194.11 C314.27 1194.1 338.81 1194.1 363.34 1194.09 C364.1 1194.09 364.86 1194.09 365.64 1194.09 C372.6 1194.09 379.55 1194.09 386.5 1194.09 C403.79 1194.09 421.08 1194.09 438.37 1194.09 C439.15 1194.09 439.94 1194.09 440.75 1194.09 C479.07 1194.09 517.38 1194.08 555.69 1194.08 C568.99 1194.07 582.29 1194.07 595.59 1194.07 C596.42 1194.07 597.24 1194.07 598.09 1194.07 C636.42 1194.06 674.75 1194.06 713.08 1194.06 C715.57 1194.05 718.05 1194.05 720.54 1194.05 C737.03 1194.05 753.51 1194.05 770 1194.05 C802.8 1194.05 835.61 1194.05 868.41 1194.04 C869.98 1194.04 871.54 1194.04 873.1 1194.04 C951.31 1194.04 1029.52 1194.02 1185 1194 C1185.01 1160.11 1185.01 1126.21 1185.02 1092.32 C1185.02 1091.66 1185.02 1090.99 1185.02 1090.31 C1185.03 1019.27 1185.04 948.23 1185.04 877.18 C1185.04 875.61 1185.04 874.03 1185.04 872.45 C1185.05 839.34 1185.05 806.23 1185.05 773.12 C1185.05 756.49 1185.05 739.86 1185.05 723.23 C1185.05 720.72 1185.06 718.21 1185.06 715.7 C1185.06 677.06 1185.06 638.41 1185.07 599.76 C1185.07 598.52 1185.07 598.52 1185.07 597.24 C1185.07 583.84 1185.07 570.44 1185.08 557.03 C1185.08 518.44 1185.09 479.84 1185.09 441.25 C1185.09 440.46 1185.09 439.66 1185.09 438.85 C1185.09 421.44 1185.09 404.03 1185.09 386.62 C1185.09 379.62 1185.09 372.61 1185.09 365.61 C1185.09 364.84 1185.09 364.07 1185.09 363.28 C1185.1 338.56 1185.1 313.83 1185.11 289.11 C1185.11 264.21 1185.12 239.32 1185.11 214.42 C1185.11 210.99 1185.11 207.55 1185.11 204.12 C1185.11 203.45 1185.11 202.77 1185.11 202.08 C1185.11 190.74 1185.12 179.4 1185.12 168.05 C1185.12 158.21 1185.12 148.36 1185.12 138.52 C1185.12 132.9 1185.12 127.28 1185.12 121.66 C1185.13 116.55 1185.13 111.45 1185.12 106.35 C1185.12 104.5 1185.12 102.66 1185.13 100.81 C1185.13 98.33 1185.13 95.84 1185.12 93.35 C1185.13 92.63 1185.13 91.9 1185.13 91.15 C1185.17 87.45 1185.17 87.45 1184 84 C1057.2 83.94 1057.2 83.94 870.37 83.87 C868.81 83.87 867.25 83.87 865.69 83.87 C832.91 83.86 800.13 83.85 767.35 83.85 C750.89 83.84 734.42 83.84 717.96 83.84 C715.48 83.84 712.99 83.83 710.51 83.83 C672.25 83.82 633.99 83.81 595.73 83.79 C594.5 83.79 594.5 83.79 593.24 83.79 C579.97 83.79 566.7 83.78 553.43 83.77 C515.23 83.75 477.02 83.73 438.82 83.73 C438.03 83.73 437.24 83.73 436.44 83.73 C419.2 83.72 401.97 83.72 384.73 83.72 C377.8 83.72 370.86 83.72 363.93 83.72 C363.17 83.72 362.41 83.72 361.63 83.72 C337.15 83.71 312.68 83.7 288.2 83.68 C263.55 83.66 238.91 83.65 214.27 83.66 C210.86 83.66 207.46 83.66 204.06 83.66 C203.39 83.66 202.73 83.66 202.04 83.66 C190.82 83.66 179.59 83.65 168.36 83.64 C158.62 83.63 148.87 83.63 139.12 83.63 C133.56 83.64 127.99 83.64 122.43 83.63 C117.38 83.61 112.32 83.61 107.27 83.63 C105.45 83.63 103.62 83.63 101.79 83.62 C99.33 83.61 96.87 83.62 94.41 83.63 C93.33 83.62 93.33 83.62 92.24 83.6 C89.54 83.63 87.45 83.75 85.06 85.06 Z " fill="#000102" transform="translate(0,0)"/>
<path d="M0 0 C0.84 0.01 1.68 0.01 2.55 0.02 C3.44 0.02 4.32 0.01 5.24 0.01 C8.18 0.01 11.11 0.02 14.05 0.03 C16.09 0.03 18.12 0.03 20.16 0.03 C24.43 0.03 28.69 0.04 32.96 0.05 C38.45 0.07 43.93 0.07 49.41 0.07 C53.62 0.07 57.82 0.08 62.02 0.09 C64.04 0.09 66.07 0.09 68.09 0.09 C70.91 0.1 73.73 0.1 76.55 0.11 C77.4 0.11 78.24 0.11 79.11 0.11 C84.87 0.15 84.87 0.15 85.99 1.26 C86.13 2.62 86.21 4 86.25 5.37 C86.3 6.7 86.3 6.7 86.36 8.06 C86.41 9.53 86.41 9.53 86.46 11.04 C86.49 12.07 86.53 13.1 86.57 14.16 C86.69 17.62 86.81 21.07 86.93 24.53 C87.02 26.98 87.1 29.44 87.19 31.89 C88.11 57.83 88.92 83.78 89.71 109.73 C89.93 116.85 90.15 123.97 90.38 131.08 C90.76 143.32 91.13 155.55 91.51 167.79 C92.08 186.19 92.65 204.59 93.23 222.99 C94.98 279.4 96.74 335.81 98.44 392.22 C98.46 392.91 98.49 393.6 98.51 394.31 C98.55 395.7 98.59 397.08 98.63 398.46 C99.17 416.16 99.71 433.85 100.25 451.54 C100.66 464.94 101.07 478.34 101.46 491.73 C101.73 500.77 102.01 509.82 102.29 518.86 C102.45 524.02 102.61 529.18 102.75 534.33 C102.89 539.01 103.03 543.68 103.18 548.36 C103.23 550.05 103.28 551.73 103.33 553.42 C103.39 555.7 103.46 557.98 103.54 560.26 C103.58 561.52 103.62 562.79 103.66 564.09 C103.96 567.04 104.44 568.78 105.99 571.26 C105.98 570.46 105.97 569.65 105.96 568.83 C105.7 540.61 106.57 512.45 107.54 484.26 C107.68 480.31 107.81 476.36 107.95 472.42 C110.93 384.41 114.53 296.43 127.08 34.96 C127.12 34.2 127.16 33.44 127.2 32.65 C127.42 28.53 127.64 24.41 127.88 20.29 C128 18.11 128.1 15.93 128.2 13.74 C128.27 12.28 128.34 10.81 128.42 9.34 C128.48 8.03 128.54 6.72 128.61 5.37 C128.99 2.26 128.99 2.26 130.99 0.26 C132.82 0.01 132.82 0.01 135.09 0.01 C136.38 0.01 136.38 0.01 137.7 0 C138.64 0.01 139.59 0.01 140.56 0.02 C141.56 0.02 142.55 0.01 143.57 0.01 C146.87 0.01 150.16 0.02 153.46 0.03 C155.74 0.03 158.02 0.03 160.3 0.03 C165.09 0.03 169.88 0.04 174.66 0.05 C180.81 0.07 186.96 0.07 193.11 0.07 C197.82 0.07 202.54 0.08 207.25 0.09 C209.52 0.09 211.78 0.09 214.05 0.09 C217.22 0.1 220.38 0.1 223.54 0.11 C224.96 0.11 224.96 0.11 226.41 0.11 C232.87 0.15 232.87 0.15 233.99 1.26 C235.22 10.59 235.37 19.99 235.68 29.39 C235.74 31.24 235.8 33.1 235.87 34.96 C236.04 40.09 236.21 45.22 236.38 50.34 C236.52 54.8 236.67 59.25 236.82 63.71 C237.23 76.02 237.64 88.34 238.04 100.65 C238.34 109.83 238.64 119 238.94 128.18 C241.23 197.45 243.38 266.74 245.42 336.02 C245.61 342.78 245.81 349.54 246.01 356.29 C246.35 367.81 246.69 379.33 247.03 390.85 C247.07 392.27 247.07 392.27 247.11 393.72 C247.78 416.58 248.45 439.45 249.1 462.31 C249.54 477.75 249.99 493.18 250.44 508.61 C250.71 517.89 250.98 527.17 251.24 536.45 C251.41 542.69 251.59 548.94 251.78 555.18 C251.88 558.75 251.99 562.32 252.08 565.9 C252.19 569.75 252.3 573.6 252.42 577.46 C252.45 578.58 252.48 579.7 252.5 580.85 C252.67 586.01 252.93 590.44 254.99 595.26 C254.97 594.08 254.97 594.08 254.96 592.88 C254.7 563.61 255.56 534.38 256.48 505.13 C256.59 501.6 256.7 498.07 256.81 494.54 C259.29 414.06 262.19 333.59 271.99 115.26 C272.04 114.16 272.04 114.16 272.1 113.04 C273.07 93.05 274.07 73.05 275.11 53.06 C275.3 49.35 275.49 45.64 275.67 41.94 C275.96 36.26 276.26 30.58 276.56 24.91 C276.67 22.85 276.78 20.8 276.88 18.74 C277.02 15.97 277.17 13.2 277.32 10.43 C277.36 9.62 277.4 8.81 277.44 7.98 C277.76 2.49 277.76 2.49 279.99 0.26 C282.9 0.07 285.73 -0 288.64 0.02 C289.54 0.02 290.44 0.01 291.36 0.01 C294.33 0.01 297.3 0.02 300.27 0.03 C302.33 0.03 304.39 0.03 306.44 0.03 C310.76 0.03 315.07 0.04 319.39 0.05 C324.93 0.07 330.48 0.07 336.02 0.07 C340.27 0.07 344.52 0.08 348.77 0.09 C350.81 0.09 352.86 0.09 354.9 0.09 C357.76 0.1 360.61 0.1 363.46 0.11 C364.74 0.11 364.74 0.11 366.05 0.11 C371.87 0.15 371.87 0.15 372.99 1.26 C373.1 3.89 373.13 6.49 373.12 9.13 C373.12 9.97 373.12 10.81 373.11 11.68 C373.02 23.59 372.4 35.49 371.84 47.38 C371.72 50.08 371.6 52.78 371.47 55.49 C371.21 61.3 370.94 67.12 370.67 72.94 C370.27 81.5 369.88 90.06 369.48 98.61 C368.83 112.82 368.18 127.02 367.52 141.22 C366.63 160.45 365.74 179.68 364.86 198.91 C364.45 207.68 364.05 216.46 363.65 225.23 C363.61 226.1 363.57 226.96 363.52 227.86 C362.92 240.98 362.32 254.1 361.71 267.22 C361.67 268.08 361.63 268.94 361.59 269.82 C361.43 273.26 361.27 276.7 361.11 280.13 C359.49 315.36 357.87 350.58 356.26 385.8 C356.19 387.44 356.19 387.44 356.11 389.12 C355.68 398.66 355.24 408.2 354.81 417.73 C353.83 439.28 352.84 460.82 351.86 482.36 C351.8 483.72 351.8 483.72 351.73 485.11 C349.96 523.97 348.18 562.83 346.38 601.7 C346.29 603.54 346.29 603.54 346.2 605.42 C345.96 610.58 345.72 615.75 345.48 620.91 C344.52 641.67 343.57 662.43 342.61 683.2 C341.65 704.24 340.68 725.28 339.71 746.33 C339.08 760.03 338.45 773.74 337.82 787.44 C337.39 796.86 336.96 806.29 336.52 815.71 C336.27 821.24 336.01 826.77 335.76 832.29 C335.53 837.41 335.29 842.53 335.05 847.64 C334.97 849.51 334.88 851.39 334.8 853.26 C334.69 855.79 334.57 858.32 334.45 860.85 C334.41 861.6 334.38 862.34 334.35 863.11 C334.1 868.15 334.1 868.15 332.99 869.26 C331.38 869.36 329.77 869.39 328.17 869.39 C327.12 869.39 326.08 869.39 325 869.4 C323.85 869.39 322.7 869.39 321.51 869.39 C320.3 869.39 319.09 869.39 317.85 869.39 C314.52 869.4 311.2 869.4 307.88 869.39 C304.41 869.39 300.94 869.39 297.47 869.4 C291.64 869.4 285.82 869.4 279.99 869.39 C273.24 869.38 266.5 869.39 259.75 869.39 C253.97 869.4 248.18 869.4 242.4 869.39 C238.94 869.39 235.48 869.39 232.03 869.4 C228.17 869.4 224.32 869.39 220.47 869.39 C219.31 869.39 218.16 869.39 216.97 869.4 C215.93 869.39 214.88 869.39 213.81 869.39 C212.9 869.39 211.98 869.39 211.04 869.39 C208.99 869.26 208.99 869.26 207.99 868.26 C207.61 865.22 207.3 862.2 207.03 859.16 C206.94 858.21 206.86 857.27 206.77 856.3 C205.8 845.52 205.05 834.72 204.32 823.92 C204.17 821.66 204.01 819.4 203.86 817.13 C203.36 809.72 202.86 802.3 202.36 794.88 C202.28 793.6 202.19 792.31 202.1 790.98 C197.37 720.42 193.02 649.83 186.16 520.5 C186.05 518.27 185.94 516.04 185.82 513.81 C185.39 505.35 184.96 496.89 184.53 488.43 C184.4 485.88 184.28 483.34 184.15 480.8 C183.21 462.29 182.53 443.78 181.99 425.26 C181.33 425.26 180.67 425.26 179.99 425.26 C180.01 426.37 180.03 427.49 180.05 428.64 C180.25 445.24 179.31 461.76 178.39 478.33 C178.16 482.67 177.92 487.02 177.69 491.37 C177.23 499.94 176.76 508.51 176.29 517.08 C175.91 524.09 175.53 531.11 175.14 538.13 C173.51 568.26 171.86 598.39 170.19 628.52 C169.98 632.32 169.77 636.12 169.56 639.93 C167.58 675.88 165.59 711.83 163.58 747.79 C163.07 756.97 162.56 766.15 162.05 775.33 C161.42 786.58 160.8 797.82 160.17 809.07 C159.84 814.85 159.52 820.64 159.2 826.43 C158.9 831.76 158.6 837.08 158.3 842.41 C158.19 844.34 158.08 846.28 157.98 848.22 C157.83 850.85 157.68 853.47 157.53 856.1 C157.47 857.24 157.47 857.24 157.41 858.41 C157.19 862.11 156.83 865.65 155.99 869.26 C139.97 869.28 123.95 869.3 107.93 869.31 C100.49 869.32 93.05 869.32 85.61 869.34 C79.13 869.35 72.65 869.35 66.17 869.35 C62.74 869.36 59.31 869.36 55.87 869.37 C52.05 869.37 48.22 869.37 44.39 869.37 C43.25 869.38 42.1 869.38 40.92 869.38 C39.88 869.38 38.84 869.38 37.78 869.38 C36.87 869.38 35.96 869.38 35.03 869.38 C32.99 869.26 32.99 869.26 31.99 868.26 C31.79 866.67 31.65 865.06 31.55 863.46 C31.47 862.38 31.4 861.29 31.33 860.17 C31.25 858.92 31.17 857.68 31.09 856.4 C31.05 855.74 31.01 855.08 30.97 854.39 C29.51 831.1 28.61 807.78 27.58 784.47 C26.99 771.06 26.39 757.66 25.79 744.25 C25.69 741.91 25.58 739.57 25.48 737.22 C24.46 714.42 23.4 691.62 22.32 668.82 C22.28 668.09 22.25 667.36 22.21 666.61 C21.83 658.44 21.44 650.26 21.05 642.09 C18.42 587.19 15.89 532.29 13.42 477.38 C9.98 400.77 6.45 324.16 2.9 247.55 C2.8 245.46 2.7 243.37 2.61 241.28 C1.86 225.18 1.11 209.08 0.36 192.98 C0 185.21 -0.36 177.43 -0.72 169.66 C-1.01 163.29 -1.31 156.93 -1.6 150.56 C-1.66 149.31 -1.72 148.07 -1.78 146.78 C-2.56 130.05 -3.34 113.32 -4.12 96.59 C-4.54 87.7 -4.95 78.81 -5.37 69.92 C-5.7 62.79 -6.04 55.67 -6.37 48.55 C-6.58 44.2 -6.78 39.85 -6.98 35.51 C-7.07 33.51 -7.17 31.51 -7.26 29.51 C-7.39 26.78 -7.52 24.05 -7.65 21.32 C-7.68 20.55 -7.72 19.77 -7.76 18.97 C-7.86 16.73 -7.94 14.5 -8.01 12.26 C-8.04 11.36 -8.07 10.47 -8.11 9.55 C-8.12 8.65 -8.14 7.75 -8.16 6.82 C-8.18 6 -8.2 5.17 -8.22 4.32 C-7.72 -0.61 -4.07 0.02 0 0 Z " fill="#000102" transform="translate(122.01271057128906,114.74005126953125)"/>
<path d="M0 0 C1.15 -0.01 1.15 -0.01 2.33 -0.02 C4.92 -0.05 7.51 -0.06 10.11 -0.07 C11.96 -0.08 13.81 -0.1 15.66 -0.11 C21.76 -0.16 27.86 -0.19 33.95 -0.21 C36.05 -0.22 38.15 -0.23 40.24 -0.24 C48.96 -0.28 57.68 -0.31 66.41 -0.33 C78.91 -0.36 91.42 -0.41 103.93 -0.52 C112.72 -0.58 121.5 -0.62 130.29 -0.63 C135.55 -0.63 140.8 -0.65 146.05 -0.71 C150.99 -0.76 155.93 -0.78 160.87 -0.75 C162.69 -0.75 164.5 -0.77 166.31 -0.8 C180.02 -1.02 180.02 -1.02 184 2.26 C185.57 4.57 186.63 6.7 187.62 9.3 C188.53 10.91 188.53 10.91 189.46 12.55 C218.19 72.12 214.52 144.08 215.14 208.52 C215.18 211.64 215.21 214.77 215.24 217.9 C215.67 260.28 215.77 302.67 215.76 345.05 C215.76 352.09 215.76 359.13 215.76 366.17 C215.76 367.2 215.76 368.23 215.76 369.29 C215.76 371.39 215.76 373.49 215.76 375.58 C215.76 394.89 215.76 414.21 215.75 433.52 C215.75 449.86 215.75 466.21 215.76 482.55 C215.76 501.86 215.76 521.16 215.76 540.46 C215.76 542.54 215.76 544.63 215.76 546.71 C215.76 547.73 215.76 548.75 215.76 549.8 C215.76 556.79 215.76 563.78 215.76 570.77 C215.77 609.88 215.69 648.98 215.2 688.08 C215.18 689.76 215.16 691.44 215.14 693.12 C213.5 826.5 213.5 826.5 192.04 864.97 C191.59 865.78 191.14 866.59 190.67 867.43 C190.33 868.05 189.98 868.66 189.62 869.3 C163.83 869.32 138.03 869.34 112.23 869.35 C100.25 869.36 88.27 869.37 76.29 869.38 C65.86 869.39 55.42 869.39 44.99 869.4 C39.46 869.4 33.93 869.4 28.4 869.41 C23.2 869.41 18 869.42 12.81 869.41 C10.89 869.41 8.98 869.42 7.06 869.42 C4.46 869.43 1.86 869.42 -0.74 869.42 C-1.51 869.42 -2.27 869.43 -3.06 869.43 C-8.26 869.42 -8.26 869.42 -9.38 868.3 C-9.47 866.41 -9.5 864.52 -9.5 862.63 C-9.5 861.38 -9.51 860.14 -9.51 858.86 C-9.51 857.46 -9.51 856.06 -9.5 854.66 C-9.51 853.18 -9.51 851.7 -9.51 850.23 C-9.51 846.13 -9.51 842.03 -9.51 837.93 C-9.51 833.49 -9.51 829.05 -9.52 824.6 C-9.52 816.8 -9.52 809 -9.52 801.2 C-9.52 789.6 -9.52 778 -9.53 766.4 C-9.54 744.49 -9.54 722.57 -9.54 700.65 C-9.54 683.73 -9.54 666.81 -9.55 649.89 C-9.55 645.03 -9.55 640.17 -9.55 635.31 C-9.55 634.1 -9.55 632.89 -9.55 631.64 C-9.56 597.62 -9.56 563.6 -9.56 529.59 C-9.56 528.3 -9.56 527.02 -9.56 525.7 C-9.56 519.19 -9.56 512.68 -9.56 506.18 C-9.56 504.88 -9.56 503.59 -9.56 502.26 C-9.56 499.65 -9.56 497.03 -9.56 494.42 C-9.56 453.74 -9.57 413.07 -9.58 372.39 C-9.6 326.74 -9.61 281.08 -9.6 235.43 C-9.6 230.57 -9.6 225.7 -9.6 220.84 C-9.6 219.64 -9.6 218.45 -9.6 217.21 C-9.6 197.9 -9.61 178.58 -9.62 159.27 C-9.63 139.87 -9.63 120.48 -9.62 101.09 C-9.62 89.55 -9.62 78.01 -9.63 66.47 C-9.64 58.78 -9.63 51.09 -9.63 43.39 C-9.62 39 -9.62 34.61 -9.63 30.22 C-9.64 26.23 -9.64 22.24 -9.63 18.25 C-9.63 16.81 -9.63 15.37 -9.63 13.93 C-9.64 11.99 -9.63 10.04 -9.62 8.1 C-9.62 6.48 -9.62 6.48 -9.63 4.83 C-9.06 -0.91 -4.61 0 0 0 Z " fill="#000102" transform="translate(761.3753051757813,114.69892883300781)"/>
<path d="M0 0 C1.04 0 2.09 0 3.16 0 C4.36 -0 5.56 -0.01 6.79 -0.01 C8.11 -0.01 9.43 0 10.79 0.01 C12.18 0 13.58 0 14.98 0 C18.78 -0 22.58 0 26.38 0.01 C30.35 0.02 34.33 0.02 38.3 0.02 C44.97 0.02 51.63 0.03 58.3 0.04 C66.02 0.06 73.75 0.06 81.47 0.06 C88.88 0.06 96.3 0.07 103.71 0.08 C106.87 0.08 110.04 0.08 113.2 0.08 C116.92 0.08 120.63 0.09 124.35 0.1 C125.72 0.1 127.09 0.1 128.46 0.1 C130.32 0.1 132.18 0.11 134.04 0.12 C135.61 0.12 135.61 0.12 137.2 0.12 C139.54 0.25 139.54 0.25 140.54 1.25 C140.75 2.76 140.9 4.29 141.03 5.81 C141.15 7.26 141.15 7.26 141.27 8.74 C141.39 10.31 141.39 10.31 141.52 11.92 C141.6 13 141.69 14.09 141.78 15.21 C142.63 25.97 143.29 36.74 143.91 47.52 C144.03 49.63 144.16 51.75 144.28 53.87 C144.61 59.57 144.94 65.28 145.27 70.98 C145.63 77.09 145.98 83.2 146.34 89.3 C146.95 99.72 147.55 110.15 148.16 120.57 C149.11 136.92 150.06 153.27 151.01 169.62 C151.09 170.99 151.17 172.36 151.25 173.73 C151.57 179.2 151.89 184.66 152.21 190.13 C152.61 196.94 153.01 203.76 153.4 210.57 C155.31 243.33 157.23 276.08 159.18 308.83 C159.23 309.66 159.28 310.48 159.33 311.34 C160.26 326.84 161.19 342.34 162.12 357.84 C162.51 364.31 162.89 370.77 163.28 377.24 C163.32 377.9 163.36 378.56 163.4 379.24 C164.7 400.96 165.98 422.67 167.24 444.39 C167.3 445.38 167.3 445.38 167.36 446.39 C167.8 454.04 168.25 461.68 168.7 469.33 C168.74 470.05 168.78 470.76 168.82 471.5 C169.17 477.54 169.17 477.54 169.33 480.24 C172.13 528.28 174.96 576.32 177.81 624.36 C178.31 632.74 178.8 641.12 179.3 649.5 C179.7 656.2 180.09 662.91 180.49 669.61 C180.59 671.28 180.69 672.96 180.79 674.63 C182.01 695.15 183.22 715.67 184.44 736.19 C185.31 750.67 186.17 765.15 187.02 779.64 C187.54 788.43 188.06 797.23 188.59 806.02 C188.94 811.96 189.3 817.9 189.65 823.84 C189.85 827.25 190.05 830.66 190.25 834.06 C190.48 837.76 190.69 841.45 190.91 845.15 C190.97 846.21 191.04 847.27 191.11 848.36 C191.51 855.33 191.61 862.27 191.54 869.25 C178.91 869.27 166.28 869.29 153.65 869.3 C147.79 869.31 141.92 869.31 136.06 869.32 C130.4 869.34 124.75 869.34 119.1 869.34 C116.93 869.35 114.77 869.35 112.61 869.35 C109.59 869.36 106.57 869.36 103.56 869.36 C102.65 869.37 101.75 869.37 100.82 869.37 C94.65 869.36 94.65 869.36 93.54 868.25 C92.44 861.45 92.26 854.65 92.06 847.77 C92 845.93 92 845.93 91.94 844.05 C91.83 840.7 91.73 837.35 91.63 833.99 C91.52 830.48 91.41 826.97 91.3 823.46 C91.09 816.83 90.89 810.19 90.69 803.55 C90.45 795.99 90.22 788.43 89.98 780.87 C89.5 765.33 89.02 749.79 88.54 734.25 C84 734.22 79.46 734.21 74.92 734.19 C73.38 734.19 71.83 734.18 70.29 734.17 C68.07 734.16 65.85 734.16 63.64 734.15 C62.94 734.15 62.25 734.14 61.53 734.14 C59.87 734.14 58.2 734.19 56.54 734.25 C52.48 738.3 54.25 752.54 54.07 758.14 C54.04 759.28 54 760.41 53.96 761.58 C53.88 764.02 53.8 766.46 53.72 768.9 C53.6 772.76 53.47 776.62 53.34 780.49 C53.03 790.07 52.71 799.66 52.4 809.24 C52.14 817.36 51.87 825.48 51.6 833.6 C51.48 837.41 51.36 841.21 51.24 845.01 C51.16 847.34 51.08 849.67 51 852 C50.96 853.58 50.96 853.58 50.91 855.2 C50.87 856.18 50.84 857.15 50.8 858.16 C50.78 859 50.75 859.85 50.72 860.71 C50.52 863.58 50.01 866.42 49.54 869.25 C16.87 869.25 -15.8 869.25 -49.46 869.25 C-50.48 866.18 -50.51 864.45 -50.33 861.26 C-50.28 860.22 -50.23 859.18 -50.17 858.11 C-50.1 856.96 -50.04 855.8 -49.97 854.62 C-49.87 852.77 -49.87 852.77 -49.77 850.9 C-49.63 848.17 -49.48 845.45 -49.33 842.73 C-49.07 838.21 -48.83 833.7 -48.59 829.19 C-48.23 822.46 -47.86 815.74 -47.49 809.02 C-46.89 797.97 -46.29 786.92 -45.69 775.87 C-45.64 774.91 -45.59 773.95 -45.54 772.96 C-45.32 768.99 -45.11 765.01 -44.89 761.03 C-44.56 754.76 -44.22 748.49 -43.88 742.21 C-41.91 705.76 -39.98 669.31 -38.06 632.86 C-38.02 632.17 -37.99 631.47 -37.95 630.76 C-37.01 612.99 -36.08 595.22 -35.14 577.45 C-34.61 567.27 -34.08 557.1 -33.54 546.92 C-33.5 546.2 -33.46 545.47 -33.42 544.73 C-33.27 541.81 -33.12 538.89 -32.96 535.97 C-29.73 474.49 -26.5 413.02 -23.28 351.55 C-23.03 346.67 -22.77 341.79 -22.52 336.91 C-20.47 297.79 -18.43 258.68 -16.4 219.57 C-16.25 216.73 -16.11 213.89 -15.96 211.04 C-15.9 209.98 -15.9 209.98 -15.85 208.89 C-15.28 198.06 -14.72 187.24 -14.16 176.41 C-14.12 175.69 -14.09 174.98 -14.05 174.24 C-13.67 167.02 -13.3 159.79 -12.92 152.56 C-12.1 136.81 -11.28 121.05 -10.47 105.29 C-9.87 93.81 -9.28 82.33 -8.68 70.86 C-8.35 64.56 -8.02 58.27 -7.7 51.98 C-7.4 46.15 -7.1 40.33 -6.79 34.51 C-6.68 32.39 -6.57 30.27 -6.46 28.15 C-6.32 25.27 -6.17 22.39 -6.01 19.51 C-5.97 18.68 -5.93 17.85 -5.89 17 C-5 0.51 -5 0.51 0 0 Z " fill="#000102" transform="translate(541.4609689712524,114.75111103057861)"/>
<path d="M0 0 C6.34 0.27 12.25 1.69 17 6 C31.28 22.88 28.15 50.06 28.13 70.87 C28.14 72.93 28.14 74.99 28.14 77.05 C28.15 82.67 28.15 88.28 28.15 93.9 C28.15 99.98 28.15 106.05 28.16 112.13 C28.16 124.02 28.17 135.92 28.17 147.81 C28.17 157.49 28.17 167.17 28.17 176.85 C28.17 179.64 28.17 182.44 28.18 185.23 C28.18 185.93 28.18 186.62 28.18 187.34 C28.18 206.87 28.19 226.41 28.19 245.94 C28.19 246.68 28.19 247.41 28.19 248.17 C28.19 251.9 28.19 255.62 28.19 259.35 C28.19 260.09 28.19 260.83 28.19 261.59 C28.19 263.09 28.19 264.59 28.19 266.08 C28.18 289.33 28.19 312.57 28.21 335.82 C28.22 361.99 28.23 388.17 28.23 414.34 C28.23 417.14 28.23 419.95 28.23 422.75 C28.23 423.44 28.23 424.12 28.23 424.84 C28.23 435.85 28.23 446.87 28.24 457.89 C28.25 469 28.25 480.11 28.25 491.22 C28.24 497.22 28.24 503.21 28.25 509.21 C28.28 530.07 28.3 550.91 27.11 571.74 C27.07 572.43 27.03 573.13 26.99 573.84 C25.06 607.14 25.06 607.14 16 616 C10.47 620.01 5.76 620.73 -1 621 C-2.16 618.69 -2.13 617.37 -2.13 614.8 C-2.13 613.91 -2.13 613.02 -2.13 612.11 C-2.13 611.12 -2.13 610.14 -2.13 609.12 C-2.13 608.08 -2.13 607.04 -2.13 605.96 C-2.14 602.42 -2.14 598.89 -2.13 595.35 C-2.14 592.8 -2.14 590.26 -2.14 587.71 C-2.15 582.16 -2.15 576.6 -2.15 571.05 C-2.14 562.79 -2.15 554.53 -2.15 546.27 C-2.16 530.66 -2.17 515.05 -2.17 499.44 C-2.17 487.39 -2.17 475.34 -2.17 463.29 C-2.17 459.83 -2.17 456.36 -2.18 452.9 C-2.18 452.04 -2.18 451.18 -2.18 450.29 C-2.18 426.06 -2.19 401.83 -2.19 377.6 C-2.19 376.68 -2.19 375.77 -2.19 374.83 C-2.19 370.2 -2.19 365.56 -2.19 360.93 C-2.19 360.01 -2.19 359.09 -2.19 358.14 C-2.19 356.28 -2.19 354.42 -2.19 352.56 C-2.18 323.59 -2.19 294.62 -2.21 265.65 C-2.22 233.13 -2.23 200.62 -2.23 168.1 C-2.23 164.64 -2.23 161.17 -2.23 157.71 C-2.23 156.86 -2.23 156 -2.23 155.12 C-2.23 141.37 -2.24 127.61 -2.24 113.86 C-2.25 100.05 -2.25 86.23 -2.25 72.42 C-2.24 64.21 -2.24 55.99 -2.25 47.77 C-2.26 41.65 -2.26 35.54 -2.25 29.42 C-2.25 26.93 -2.25 24.44 -2.26 21.95 C-2.26 18.6 -2.26 15.24 -2.25 11.88 C-2.25 10.89 -2.26 9.91 -2.26 8.89 C-2.26 8.01 -2.25 7.12 -2.25 6.2 C-2.25 5.43 -2.25 4.66 -2.25 3.87 C-2 2 -2 2 0 0 Z " fill="#EDF2F7" transform="translate(851,235)"/>
<path d="M0 0 C1.34 0 1.34 0 2.72 0 C4.26 -0 4.26 -0 5.83 -0.01 C6.96 -0.01 8.1 0 9.26 0.01 C11.04 0 11.04 0 12.86 0 C16.13 -0 19.39 0 22.66 0.01 C26.07 0.02 29.48 0.02 32.89 0.02 C38.62 0.02 44.34 0.03 50.07 0.04 C56.7 0.06 63.33 0.06 69.96 0.06 C76.33 0.06 82.7 0.07 89.07 0.08 C91.78 0.08 94.5 0.08 97.21 0.08 C101 0.08 104.78 0.09 108.57 0.1 C109.7 0.1 110.84 0.1 112.01 0.1 C113.54 0.11 113.54 0.11 115.11 0.12 C116.01 0.12 116.91 0.12 117.83 0.12 C119.85 0.25 119.85 0.25 120.85 1.25 C120.95 2.86 120.97 4.47 120.97 6.08 C120.97 7.64 120.97 7.64 120.98 9.24 C120.97 10.98 120.97 10.98 120.96 12.75 C120.97 13.95 120.97 15.16 120.97 16.41 C120.96 19.74 120.96 23.06 120.95 26.39 C120.95 29.86 120.95 33.33 120.94 36.81 C120.94 43.39 120.93 49.97 120.92 56.55 C120.91 64.04 120.91 71.53 120.9 79.02 C120.89 94.43 120.87 109.84 120.85 125.25 C104.7 125.27 88.55 125.29 72.4 125.3 C64.9 125.31 57.4 125.31 49.91 125.32 C43.37 125.33 36.84 125.34 30.31 125.34 C26.84 125.34 23.38 125.35 19.92 125.35 C16.06 125.36 12.21 125.36 8.35 125.36 C7.19 125.37 6.04 125.37 4.85 125.37 C3.8 125.37 2.76 125.37 1.68 125.37 C0.31 125.37 0.31 125.37 -1.09 125.37 C-3.15 125.25 -3.15 125.25 -4.15 124.25 C-4.25 122.67 -4.28 121.09 -4.28 119.51 C-4.29 118.49 -4.29 117.46 -4.3 116.4 C-4.29 115.27 -4.29 114.14 -4.29 112.97 C-4.3 111.78 -4.3 110.59 -4.3 109.37 C-4.31 106.11 -4.32 102.84 -4.32 99.58 C-4.32 96.86 -4.32 94.14 -4.32 91.41 C-4.33 85 -4.33 78.58 -4.33 72.16 C-4.33 65.53 -4.34 58.9 -4.36 52.27 C-4.37 46.59 -4.38 40.9 -4.38 35.22 C-4.38 31.82 -4.38 28.42 -4.39 25.02 C-4.4 21.24 -4.4 17.45 -4.39 13.66 C-4.4 12.53 -4.4 11.4 -4.41 10.23 C-4.4 9.2 -4.4 8.17 -4.4 7.11 C-4.4 6.22 -4.4 5.32 -4.4 4.4 C-4.04 1.34 -3.06 0.35 0 0 Z " fill="#000102" transform="translate(1038.148621559143,1041.7511110305786)"/>
<path d="M0 0 C0.33 0 0.66 0 1 0 C0.99 0.72 0.99 1.45 0.98 2.19 C0.85 22.44 1.29 42.62 2.01 62.85 C2.17 67.06 2.31 71.28 2.46 75.5 C2.74 83.67 3.03 91.85 3.32 100.02 C3.56 106.65 3.79 113.28 4.03 119.91 C6.17 180.68 8.49 241.44 10.99 302.19 C11.08 304.47 11.18 306.75 11.27 309.02 C11.33 310.51 11.39 311.99 11.45 313.47 C11.48 314.2 11.51 314.92 11.54 315.66 C11.73 320.37 11.93 325.08 12.13 329.78 C12.89 348.19 13.48 366.59 14 385 C12.91 385 11.82 385.01 10.69 385.01 C9.24 385.02 7.79 385.02 6.35 385.03 C5.63 385.03 4.91 385.04 4.17 385.04 C1.2 385.05 -1.76 385.06 -4.73 385.08 C-6.79 385.09 -8.84 385.09 -10.9 385.1 C-11.59 385.1 -12.27 385.11 -12.98 385.11 C-14.65 385.11 -16.33 385.06 -18 385 C-19.92 383.08 -19.13 380.23 -19.13 377.68 C-19.13 376.78 -19.12 375.88 -19.12 374.95 C-19.11 373.54 -19.11 373.54 -19.11 372.1 C-19.04 360.97 -18.58 349.86 -18.12 338.73 C-18.02 336.39 -17.93 334.04 -17.83 331.69 C-17.57 325.36 -17.31 319.04 -17.04 312.71 C-16.9 309.39 -16.76 306.06 -16.62 302.73 C-14.16 243.45 -11.25 184.19 -8.2 124.94 C-7.99 120.89 -7.79 116.84 -7.58 112.79 C-5.74 76.86 -3.88 40.93 -2 5 C-1.34 5 -0.68 5 0 5 C0 3.35 0 1.7 0 0 Z " fill="#EDF2F7" transform="translate(614,295)"/>
</svg>
