<?xml version="1.0" encoding="UTF-8"?>
<svg id="Camada_1" data-name="Camada 1" xmlns="http://www.w3.org/2000/svg" viewBox="0 0 447.86 451.07">
  <defs>
    <style>
      .cls-1 {
        stroke-width: 0px;
      }
    </style>
  </defs>
  <g>
    <path class="cls-1" d="M141.48,40.7c-4.01,72.39-6.93,146.31-8.75,221.79l-3.78-126.45c-1.46-45.79-2.51-77.57-3.16-95.35h-36.86c-4.6,87.48-7.5,158.74-8.7,213.79l-3.5-112.1-3.18-101.69h-33.03l14.12,306.31h43.69c4.61-81.69,7.58-135.86,8.87-162.52,2.78,60.18,5.93,114.35,9.48,162.52h44.14l14.05-306.31h-33.4Z"/>
    <path class="cls-1" d="M240.64,40.7h-51.05l-16.09,306.31h35.16l1.66-47.98h12.24l1.47,47.98h34.64l-18.04-306.31ZM209.89,240.11c.89-29.41,3.08-75.94,6.56-139.58,1.75,55.42,3.48,101.94,5.21,139.58h-11.78Z"/>
    <path class="cls-1" d="M343.29,80.31c-.76-10.74-2.65-20.49-5.69-29.25-1.38-3.96-3.03-7.42-4.98-10.36h-67.45v306.31h69.83c.68-1.09,1.33-2.26,1.95-3.53,2.77-5.68,4.7-13.55,5.81-23.61,1.12-10.06,1.67-30,1.67-59.84v-116.39c0-31.47-.39-52.58-1.14-63.33ZM310.21,253.66c0,22.17-.56,35.75-1.71,40.75-1.13,5-4.17,7.49-9.11,7.49V83.29c3.74,0,6.29.99,7.64,2.98,1.36,1.98,2.23,5.1,2.61,9.34.38,4.25.56,13.89.56,28.94v129.12Z"/>
  </g>
  <path class="cls-1" d="M0,0v451.07h447.86V0H0ZM417.84,421.05H30.02V30.02h387.82v391.03Z"/>
  <rect class="cls-1" x="364.63" y="367.52" width="44.02" height="44.02"/>
</svg>